<mxfile host="65bd71144e">
    <diagram id="O9DN8Ueb2aqdoFbTacXj" name="第 1 页">
        <mxGraphModel dx="1374" dy="790" grid="1" gridSize="10" guides="1" tooltips="1" connect="1" arrows="1" fold="1" page="1" pageScale="1" pageWidth="827" pageHeight="1169" math="0" shadow="0">
            <root>
                <mxCell id="0"/>
                <mxCell id="1" parent="0"/>
                <mxCell id="12" value="" style="edgeStyle=orthogonalEdgeStyle;rounded=0;orthogonalLoop=1;jettySize=auto;html=1;fontSize=14;fontColor=#003366;strokeColor=#33FFFF;" edge="1" parent="1" source="2" target="11">
                    <mxGeometry relative="1" as="geometry"/>
                </mxCell>
                <mxCell id="2" value="&lt;font&gt;unbindService()&lt;/font&gt;" style="strokeWidth=2;html=1;shape=mxgraph.flowchart.start_1;whiteSpace=wrap;fontSize=14;gradientColor=#6666FF;gradientDirection=east;fillColor=#33FFFF;strokeColor=none;fontColor=#003366;shadow=1;" parent="1" vertex="1">
                    <mxGeometry x="315" y="90" width="110" height="60" as="geometry"/>
                </mxCell>
                <mxCell id="8" value="" style="strokeWidth=2;html=1;shape=mxgraph.flowchart.annotation_2;align=left;labelPosition=right;pointerEvents=1;shadow=1;fontSize=14;fontColor=#003366;fillColor=#33FFFF;gradientColor=#6666FF;direction=west;strokeColor=#33FFFF;" vertex="1" parent="1">
                    <mxGeometry x="450" y="95" width="50" height="50" as="geometry"/>
                </mxCell>
                <mxCell id="10" value="&lt;pre style=&quot;background-color: #1f292d ; color: #a9b7c6 ; font-family: &amp;#34;courier new&amp;#34; , monospace ; font-size: 12.0pt&quot;&gt;&lt;span style=&quot;color: #4ec9b0&quot;&gt;参数：ServiceConnection&lt;/span&gt;&lt;/pre&gt;" style="text;whiteSpace=wrap;html=1;fontSize=14;fontColor=#003366;" vertex="1" parent="1">
                    <mxGeometry x="500" y="90" width="190" height="60" as="geometry"/>
                </mxCell>
                <mxCell id="14" value="" style="edgeStyle=orthogonalEdgeStyle;rounded=0;orthogonalLoop=1;jettySize=auto;html=1;fontSize=14;fontColor=#003366;strokeColor=#33FFFF;" edge="1" parent="1" source="11" target="13">
                    <mxGeometry relative="1" as="geometry"/>
                </mxCell>
                <mxCell id="11" value="onUnbind()" style="whiteSpace=wrap;html=1;shadow=1;fontSize=14;fontColor=#003366;strokeColor=none;strokeWidth=2;fillColor=#33FFFF;gradientColor=#6666FF;gradientDirection=east;" vertex="1" parent="1">
                    <mxGeometry x="310" y="210" width="120" height="60" as="geometry"/>
                </mxCell>
                <mxCell id="16" value="" style="edgeStyle=orthogonalEdgeStyle;rounded=0;orthogonalLoop=1;jettySize=auto;html=1;fontSize=14;fontColor=#003366;strokeColor=#33FFFF;" edge="1" parent="1" source="13" target="15">
                    <mxGeometry relative="1" as="geometry"/>
                </mxCell>
                <mxCell id="22" value="否" style="edgeLabel;html=1;align=center;verticalAlign=middle;resizable=0;points=[];fontSize=14;fontColor=#007FFF;" vertex="1" connectable="0" parent="16">
                    <mxGeometry x="-0.2444" y="1" relative="1" as="geometry">
                        <mxPoint x="-1" y="-4" as="offset"/>
                    </mxGeometry>
                </mxCell>
                <mxCell id="20" style="edgeStyle=orthogonalEdgeStyle;rounded=0;orthogonalLoop=1;jettySize=auto;html=1;exitX=1;exitY=0.5;exitDx=0;exitDy=0;entryX=1.01;entryY=0.633;entryDx=0;entryDy=0;entryPerimeter=0;fontSize=14;fontColor=#007FFF;strokeColor=#33FFFF;" edge="1" parent="1" source="13" target="18">
                    <mxGeometry relative="1" as="geometry"/>
                </mxCell>
                <mxCell id="21" value="是" style="edgeLabel;html=1;align=center;verticalAlign=middle;resizable=0;points=[];fontSize=14;fontColor=#007FFF;" vertex="1" connectable="0" parent="20">
                    <mxGeometry x="-0.4642" y="-1" relative="1" as="geometry">
                        <mxPoint as="offset"/>
                    </mxGeometry>
                </mxCell>
                <mxCell id="13" value="是否仍被其他组件绑定" style="rhombus;whiteSpace=wrap;html=1;shadow=1;fontSize=14;fontColor=#003366;strokeColor=none;strokeWidth=2;fillColor=#33FFFF;gradientColor=#6666FF;gradientDirection=east;" vertex="1" parent="1">
                    <mxGeometry x="280" y="330" width="180" height="100" as="geometry"/>
                </mxCell>
                <mxCell id="19" value="" style="edgeStyle=orthogonalEdgeStyle;rounded=0;orthogonalLoop=1;jettySize=auto;html=1;fontSize=14;fontColor=#007FFF;strokeColor=#33FFFF;" edge="1" parent="1" source="15" target="18">
                    <mxGeometry relative="1" as="geometry"/>
                </mxCell>
                <mxCell id="15" value="onDestroy()" style="whiteSpace=wrap;html=1;shadow=1;fontSize=14;fontColor=#003366;strokeColor=none;strokeWidth=2;fillColor=#33FFFF;gradientColor=#6666FF;gradientDirection=east;" vertex="1" parent="1">
                    <mxGeometry x="310" y="520" width="120" height="60" as="geometry"/>
                </mxCell>
                <mxCell id="18" value="结束" style="strokeWidth=2;html=1;shape=mxgraph.flowchart.terminator;whiteSpace=wrap;shadow=1;fontSize=14;fontColor=#003366;fillColor=#33FFFF;gradientColor=#6666FF;strokeColor=none;gradientDirection=east;" vertex="1" parent="1">
                    <mxGeometry x="320" y="640" width="100" height="60" as="geometry"/>
                </mxCell>
            </root>
        </mxGraphModel>
    </diagram>
    <diagram name="第 1 页" id="S7DKjPSIujGSLo2xYRyb">
        <mxGraphModel grid="1" gridSize="10" guides="1" tooltips="1" connect="1" arrows="1" page="1" fold="1" pageScale="1" pageWidth="827" pageHeight="1169" math="0" shadow="0">
            <root>
                <mxCell id="0"/>
                <mxCell id="1" parent="0"/>
                <mxCell id="4" value="" style="edgeStyle=orthogonalEdgeStyle;rounded=0;orthogonalLoop=1;jettySize=auto;html=1;fontSize=14;labelBackgroundColor=none;strokeColor=#66FFFF;" parent="1" source="2" target="3" edge="1">
                    <mxGeometry relative="1" as="geometry"/>
                </mxCell>
                <mxCell id="2" value="&lt;font style=&quot;font-size: 14px&quot;&gt;bindService()&lt;/font&gt;" style="strokeWidth=2;html=1;shape=mxgraph.flowchart.start_1;whiteSpace=wrap;fontSize=14;gradientDirection=east;fillColor=#00FFFF;sketch=0;shadow=1;fontColor=#003366;strokeColor=none;gradientColor=#6666FF;" parent="1" vertex="1">
                    <mxGeometry x="340" y="100" width="100" height="60" as="geometry"/>
                </mxCell>
                <mxCell id="6" value="" style="edgeStyle=orthogonalEdgeStyle;rounded=0;orthogonalLoop=1;jettySize=auto;html=1;fontSize=14;labelBackgroundColor=none;strokeColor=#66FFFF;" parent="1" source="3" target="5" edge="1">
                    <mxGeometry relative="1" as="geometry"/>
                </mxCell>
                <mxCell id="12" style="edgeStyle=orthogonalEdgeStyle;rounded=0;orthogonalLoop=1;jettySize=auto;html=1;fontSize=14;labelBackgroundColor=none;strokeColor=#66FFFF;entryX=1;entryY=0.5;entryDx=0;entryDy=0;" parent="1" source="3" target="23" edge="1">
                    <mxGeometry relative="1" as="geometry">
                        <Array as="points">
                            <mxPoint x="520" y="255"/>
                            <mxPoint x="520" y="518"/>
                        </Array>
                        <mxPoint x="450" y="430" as="targetPoint"/>
                    </mxGeometry>
                </mxCell>
                <mxCell id="20" value="否" style="edgeLabel;html=1;align=center;verticalAlign=middle;resizable=0;points=[];fontSize=14;fontColor=#3399FF;" parent="12" vertex="1" connectable="0">
                    <mxGeometry x="-0.595" y="3" relative="1" as="geometry">
                        <mxPoint x="-133" y="70" as="offset"/>
                    </mxGeometry>
                </mxCell>
                <mxCell id="21" value="是" style="edgeLabel;html=1;align=center;verticalAlign=middle;resizable=0;points=[];fontSize=14;fontColor=#3399FF;" parent="12" vertex="1" connectable="0">
                    <mxGeometry x="-0.605" y="3" relative="1" as="geometry">
                        <mxPoint x="-3" y="79" as="offset"/>
                    </mxGeometry>
                </mxCell>
                <mxCell id="3" value="Service 是否创建" style="rhombus;whiteSpace=wrap;html=1;fontSize=14;strokeWidth=2;shadow=0;fontColor=#003366;fillColor=#00FFFF;gradientDirection=east;sketch=0;strokeColor=none;gradientColor=#6666FF;" parent="1" vertex="1">
                    <mxGeometry x="312.5" y="200" width="155" height="110" as="geometry"/>
                </mxCell>
                <mxCell id="26" value="" style="edgeStyle=orthogonalEdgeStyle;rounded=0;orthogonalLoop=1;jettySize=auto;html=1;labelBackgroundColor=none;fontSize=14;strokeColor=#66FFFF;" parent="1" source="5" target="23" edge="1">
                    <mxGeometry relative="1" as="geometry"/>
                </mxCell>
                <mxCell id="5" value="onCreate()" style="whiteSpace=wrap;html=1;fontSize=14;strokeWidth=2;shadow=0;fontColor=#003366;fillColor=#00FFFF;gradientDirection=east;sketch=0;strokeColor=none;gradientColor=#6666FF;" parent="1" vertex="1">
                    <mxGeometry x="330" y="385" width="120" height="60" as="geometry"/>
                </mxCell>
                <mxCell id="16" value="结束" style="strokeWidth=2;html=1;shape=mxgraph.flowchart.terminator;whiteSpace=wrap;fontSize=14;shadow=0;fontColor=#003366;fillColor=#00FFFF;gradientDirection=east;sketch=0;gradientColor=#6666FF;strokeColor=none;" parent="1" vertex="1">
                    <mxGeometry x="340" y="600" width="100" height="60" as="geometry"/>
                </mxCell>
                <mxCell id="27" value="" style="edgeStyle=orthogonalEdgeStyle;rounded=0;orthogonalLoop=1;jettySize=auto;html=1;labelBackgroundColor=none;fontSize=14;strokeColor=#66FFFF;" parent="1" source="23" target="16" edge="1">
                    <mxGeometry relative="1" as="geometry"/>
                </mxCell>
                <mxCell id="23" value="onBind()" style="whiteSpace=wrap;html=1;absoluteArcSize=1;strokeWidth=2;shadow=0;fontSize=14;fontColor=#003366;strokeColor=none;fillColor=#00FFFF;gradientColor=#6666FF;gradientDirection=east;sketch=0;" parent="1" vertex="1">
                    <mxGeometry x="325" y="490" width="130" height="55" as="geometry"/>
                </mxCell>
            </root>
        </mxGraphModel>
    </diagram>
    <diagram name="第 2 页" id="cqrpyU3d327U4-dnJGpN">
        <mxGraphModel grid="1" gridSize="10" guides="1" tooltips="1" connect="1" arrows="1" page="1" fold="1" pageScale="1" pageWidth="827" pageHeight="1169" math="0" shadow="0">
            <root>
                <mxCell id="RKC_8sI3UlXpK45quB-Q-0"/>
                <mxCell id="RKC_8sI3UlXpK45quB-Q-1" parent="RKC_8sI3UlXpK45quB-Q-0"/>
            </root>
        </mxGraphModel>
    </diagram>
</mxfile>